<svg width="120" height="29" viewBox="0 0 120 29" fill="none" xmlns="http://www.w3.org/2000/svg">
<path d="M31.6328 9.21045V19.9589H33.9978V15.7955H39.1242V13.643H33.9978V11.363H39.8181V9.21045H31.6328Z" fill="#E2231A"/>
<path d="M45.0293 11.9719L46.4596 15.4556H43.6132L45.0293 11.9719ZM43.9814 9.12549L39.3789 19.9589H41.7863L42.7635 17.5515H47.3093L48.2864 19.9589H50.7647L46.1622 9.12549H43.9814Z" fill="#E2231A"/>
<path d="M59.0636 9.21045V15.8238L54.0222 9.21045H51.8413V19.9589H54.1779V13.119L59.3893 19.9589H61.4002V9.21045H59.0636Z" fill="#E2231A"/>
<path d="M63.0713 18.387L64.4733 16.716C65.4362 17.509 66.4559 18.0188 67.6879 18.0188C68.6509 18.0188 69.2315 17.6365 69.2315 16.9992V16.9709C69.2315 16.3761 68.8633 16.0646 67.0648 15.5972C64.8981 15.0449 63.4961 14.4502 63.4961 12.3118V12.2835C63.4961 10.3292 65.068 9.04053 67.2631 9.04053C68.835 9.04053 70.1661 9.53618 71.2566 10.4142L70.0245 12.1985C69.0757 11.5329 68.1411 11.1364 67.2347 11.1364C66.3284 11.1364 65.8469 11.5471 65.8469 12.0711V12.0994C65.8469 12.8075 66.3142 13.034 68.1694 13.5155C70.3502 14.082 71.5823 14.8609 71.5823 16.7443V16.7726C71.5823 18.911 69.9537 20.1006 67.6313 20.1006C66.0027 20.1147 64.36 19.5483 63.0713 18.387Z" fill="#E2231A"/>
<path d="M73.4512 9.21045H75.8161V13.4589H80.1778V9.21045H82.5428V19.9589H80.1778V15.6397H75.8161V19.9589H73.4512V9.21045Z" fill="#E2231A"/>
<path d="M88.434 9.12549H90.6148L95.2173 19.9589H92.7391L91.7619 17.5515H87.2161L86.239 19.9589H83.8315L88.434 9.12549ZM90.9122 15.4556L89.4819 11.9719L88.0516 15.4556H90.9122Z" fill="#E2231A"/>
<path d="M94.1411 9.21045H96.676L98.8993 16.4894L101.307 9.18213H103.332L105.753 16.4894L107.977 9.21045H110.455L106.773 20.0439H104.72L102.298 13.0057L99.8623 20.0439H97.8089L94.1411 9.21045Z" fill="#E2231A"/>
<path d="M111.814 9.21045H119.929V11.3063H114.165V13.5013H119.235V15.5972H114.165V17.8489H120V19.9589H111.814V9.21045Z" fill="#E2231A"/>
<path d="M13.7613 5.94845L8.55629 0.729169C8.50638 0.679258 8.45647 0.686388 8.42795 0.693518C8.37091 0.707779 8.32812 0.76482 8.32812 0.814731V4.28712C8.32812 4.47964 8.40656 4.66502 8.54916 4.79336L11.7292 7.97341L13.7613 5.94845Z" fill="#E2231A"/>
<path d="M5.01986 4.2301C4.98421 4.18732 4.9343 4.18732 4.89865 4.19445C4.84161 4.20871 4.80596 4.25862 4.79883 4.30854L4.80596 7.77379C4.77744 8.09465 5.01986 8.31569 5.01986 8.31569L10.0466 13.3425C10.0751 13.3638 10.1393 13.4209 10.2463 13.4209V9.46364L5.01986 4.2301Z" fill="#E2231A"/>
<path d="M13.7613 10.0268L11.7363 7.98047L10.2461 9.47067V13.4279C10.3887 13.4279 10.4671 13.3281 10.4743 13.3138L13.7613 10.0268Z" fill="#E2231A"/>
<path d="M19.1944 0.814867C19.1944 0.722174 19.1231 0.686523 19.0661 0.686523C19.0376 0.686523 19.0019 0.700784 18.9663 0.729304L13.7612 5.94145V10.0199L18.8878 4.89332L18.8949 4.88619C19.0661 4.74359 19.1873 4.52968 19.1873 4.33717V0.814867H19.1944Z" fill="#E2231A"/>
<path d="M13.7613 5.94873L11.7363 7.9737L13.7613 10.0272V5.94873Z" fill="#E2231A"/>
<path d="M5.26193 14.5117L0.0426457 19.7167C-0.00726542 19.7667 -0.000135252 19.8166 0.00699491 19.8451C0.0212552 19.9021 0.0782969 19.9449 0.128208 19.9449H3.6006C3.79311 19.9449 3.9785 19.8665 4.10684 19.7239L7.28689 16.5438L5.26193 14.5117Z" fill="#E2231A"/>
<path d="M3.54358 23.2533C3.5008 23.2889 3.5008 23.3388 3.50793 23.3745C3.52219 23.4315 3.5721 23.4672 3.62201 23.4743L7.08727 23.4672C7.40813 23.4957 7.62916 23.2533 7.62916 23.2533L12.6559 18.2265C12.6773 18.198 12.7344 18.1338 12.7344 18.0269H8.77712L3.54358 23.2533Z" fill="#E2231A"/>
<path d="M9.33347 14.5117L7.28711 16.5367L8.77731 18.0269H12.7346C12.7346 17.8843 12.6347 17.8059 12.6205 17.7987L9.33347 14.5117Z" fill="#E2231A"/>
<path d="M0.128343 9.07178C0.0427812 9.07178 0 9.15021 0 9.20012C0 9.22864 0.0142602 9.26429 0.0427809 9.29994L5.25493 14.505H9.33338L4.2068 9.37837L4.19254 9.37124C4.04993 9.20012 3.83603 9.07891 3.64351 9.07891H0.128343V9.07178Z" fill="#E2231A"/>
<path d="M5.26221 14.5117L7.28717 16.5367L9.33353 14.5117H5.26221Z" fill="#E2231A"/>
<path d="M13.8042 23.0541L19.0092 28.2733C19.0591 28.3233 19.109 28.3161 19.1376 28.309C19.1946 28.2947 19.2374 28.2377 19.2374 28.1878C19.2374 28.1878 19.2374 24.7225 19.2374 24.7154C19.2374 24.5229 19.159 24.3375 19.0163 24.2092L15.8292 21.022L13.8042 23.0541Z" fill="#E2231A"/>
<path d="M22.5457 24.7652C22.5814 24.808 22.6313 24.808 22.667 24.8008C22.724 24.7866 22.7597 24.7367 22.7668 24.6868L22.7597 21.2215C22.7882 20.9006 22.5457 20.6796 22.5457 20.6796L17.519 15.66C17.4976 15.6386 17.4263 15.5815 17.3193 15.5815V19.5388L22.5457 24.7652Z" fill="#E2231A"/>
<path d="M13.8042 18.9753L15.8292 21.0217L17.3194 19.5315V15.5742C17.1768 15.5742 17.0983 15.674 17.0912 15.6883L13.8042 18.9753Z" fill="#E2231A"/>
<path d="M8.37061 28.1806C8.37061 28.2662 8.44191 28.309 8.49895 28.309C8.52747 28.309 8.56312 28.2947 8.59877 28.2662L13.8038 23.054V18.9756L8.6772 24.1022L8.67007 24.1164C8.49895 24.259 8.37774 24.4729 8.37774 24.6655V28.1806H8.37061Z" fill="#E2231A"/>
<path d="M13.8042 23.054L15.8292 21.0219L13.8042 18.9756V23.054Z" fill="#E2231A"/>
<path d="M22.3746 14.4903L27.5939 9.2853C27.6438 9.23538 27.6366 9.18547 27.6295 9.15695C27.6152 9.09991 27.5582 9.05713 27.5083 9.05713H24.0359C23.8434 9.05713 23.658 9.13556 23.5297 9.27816L20.3496 12.4582L22.3746 14.4903Z" fill="#E2231A"/>
<path d="M24.0858 5.74154C24.1286 5.70589 24.1357 5.65598 24.1215 5.62033C24.1072 5.56329 24.0573 5.52764 24.0074 5.52051L20.5421 5.52764C20.2213 5.49912 20.0002 5.74154 20.0002 5.74154L14.9735 10.7683C14.9521 10.7897 14.895 10.861 14.895 10.968H18.8523L24.0858 5.74154Z" fill="#E2231A"/>
<path d="M18.2961 14.4908L20.3425 12.4658L18.8523 10.9756H14.895C14.895 11.1182 14.9948 11.1966 15.0091 11.2038L18.2961 14.4908Z" fill="#E2231A"/>
<path d="M27.5009 19.9239C27.5936 19.9239 27.6293 19.8455 27.6293 19.7956C27.6293 19.767 27.615 19.7314 27.5865 19.6957L22.3744 14.4907H18.2959L23.4225 19.6173L23.4367 19.6316C23.5794 19.8027 23.7933 19.9239 23.9858 19.9239H27.5009Z" fill="#E2231A"/>
<path d="M22.3744 14.4906L20.3423 12.4585L18.2959 14.4906H22.3744Z" fill="#E2231A"/>
</svg>
