{
  "scenes": [
    {
      "nodes": [0]
    }
  ],
  "asset": {
    "version": "2.0",
    "generator": "Maxon Cinema 4D 2024.4.0 (#200000219)"
  },
  "accessors": [
    {
      "bufferView": 0,
      "type": "SCALAR",
      "componentType": 5123,
      "count": 15024,
      "byteOffset": 0,
      "min": [0],
      "max": [15023]
    },
    {
      "bufferView": 1,
      "type": "VEC3",
      "componentType": 5126,
      "count": 15024,
      "byteOffset": 0,
      "min": [-0.19689734280109406, -0.4993891417980194, -0.08631578087806702],
      "max": [0.3235355615615845, -0.03883099928498268, 0.022497838363051414]
    },
    {
      "bufferView": 1,
      "type": "VEC3",
      "componentType": 5126,
      "count": 15024,
      "byteOffset": 12,
      "min": [-0.9998798966407776, -0.998938798904419, -1],
      "max": [0.9998654723167419, 0.9999721050262451, 1]
    },
    {
      "bufferView": 2,
      "type": "SCALAR",
      "componentType": 5123,
      "count": 15144,
      "byteOffset": 0,
      "min": [0],
      "max": [15143]
    },
    {
      "bufferView": 3,
      "type": "VEC3",
      "componentType": 5126,
      "count": 15144,
      "byteOffset": 0,
      "min": [0.03896038234233856, -0.19607394933700562, -0.08933483809232712],
      "max": [0.49951815605163574, 0.3246220052242279, 0.019478779286146164]
    },
    {
      "bufferView": 3,
      "type": "VEC3",
      "componentType": 5126,
      "count": 15144,
      "byteOffset": 12,
      "min": [-0.9985201954841614, -0.9998798966407776, -0.9999585747718811],
      "max": [0.9989461898803711, 0.9998654723167419, 0.9999585747718811]
    },
    {
      "bufferView": 4,
      "type": "SCALAR",
      "componentType": 5123,
      "count": 14916,
      "byteOffset": 0,
      "min": [0],
      "max": [14915]
    },
    {
      "bufferView": 5,
      "type": "VEC3",
      "componentType": 5126,
      "count": 14916,
      "byteOffset": 0,
      "min": [-0.49951815605163574, -0.3244430720806122, -0.07794113457202911],
      "max": [-0.0391436442732811, 0.19625356793403625, 0.030872482806444168]
    },
    {
      "bufferView": 5,
      "type": "VEC3",
      "componentType": 5126,
      "count": 14916,
      "byteOffset": 12,
      "min": [-0.9989514350891113, -0.9998654723167419, -1],
      "max": [0.9999725818634033, 0.9999199509620667, 1]
    },
    {
      "bufferView": 6,
      "type": "SCALAR",
      "componentType": 5123,
      "count": 15024,
      "byteOffset": 0,
      "min": [0],
      "max": [15023]
    },
    {
      "bufferView": 7,
      "type": "VEC3",
      "componentType": 5126,
      "count": 15024,
      "byteOffset": 0,
      "min": [-0.3260396122932434, 0.03875557705760002, -0.0950552299618721],
      "max": [0.19439460337162018, 0.4993891417980194, 0.01375838927924633]
    },
    {
      "bufferView": 7,
      "type": "VEC3",
      "componentType": 5126,
      "count": 15024,
      "byteOffset": 12,
      "min": [-0.9998654723167419, -0.9999672770500183, -1],
      "max": [0.9999199509620667, 0.9989374279975891, 1]
    }
  ],
  "nodes": [
    {
      "name": "Fanshawe North Star Motion 2",
      "translation": [
        0.0018366834847256541, 0.042118530720472336, -0.018902618438005447
      ],
      "rotation": [
        0.1507830172777176, -0.20248593389987946, 0.031570352613925934,
        -0.9670921564102173
      ],
      "scale": [0.8837054371833801, 0.8837054371833801, 0.8837054371833801],
      "children": [1, 2, 3, 4]
    },
    {
      "name": "Fanshawe North Star.Bottom",
      "mesh": 0
    },
    {
      "name": "Fanshawe North Star.Right",
      "mesh": 1
    },
    {
      "name": "Fanshawe North Star.Left",
      "mesh": 2
    },
    {
      "name": "Fanshawe North Star.Top",
      "mesh": 3
    }
  ],
  "meshes": [
    {
      "name": "Fanshawe North Star.Bottom",
      "primitives": [
        {
          "attributes": {
            "POSITION": 1,
            "NORMAL": 2
          },
          "indices": 0,
          "material": 0
        }
      ]
    },
    {
      "name": "Fanshawe North Star.Right",
      "primitives": [
        {
          "attributes": {
            "POSITION": 4,
            "NORMAL": 5
          },
          "indices": 3,
          "material": 0
        }
      ]
    },
    {
      "name": "Fanshawe North Star.Left",
      "primitives": [
        {
          "attributes": {
            "POSITION": 7,
            "NORMAL": 8
          },
          "indices": 6,
          "material": 0
        }
      ]
    },
    {
      "name": "Fanshawe North Star.Top",
      "primitives": [
        {
          "attributes": {
            "POSITION": 10,
            "NORMAL": 11
          },
          "indices": 9,
          "material": 0
        }
      ]
    }
  ],
  "bufferViews": [
    {
      "buffer": 0,
      "byteOffset": 0,
      "byteLength": 30048,
      "target": 34963
    },
    {
      "buffer": 0,
      "byteOffset": 30048,
      "byteLength": 360576,
      "byteStride": 24,
      "target": 34962
    },
    {
      "buffer": 1,
      "byteOffset": 0,
      "byteLength": 30288,
      "target": 34963
    },
    {
      "buffer": 1,
      "byteOffset": 30288,
      "byteLength": 363456,
      "byteStride": 24,
      "target": 34962
    },
    {
      "buffer": 2,
      "byteOffset": 0,
      "byteLength": 29832,
      "target": 34963
    },
    {
      "buffer": 2,
      "byteOffset": 29832,
      "byteLength": 357984,
      "byteStride": 24,
      "target": 34962
    },
    {
      "buffer": 3,
      "byteOffset": 0,
      "byteLength": 30048,
      "target": 34963
    },
    {
      "buffer": 3,
      "byteOffset": 30048,
      "byteLength": 360576,
      "byteStride": 24,
      "target": 34962
    }
  ],
  "buffers": [
    {
      "uri": "data:application/octet-stream;base64,",
      "byteLength": 390624
    },
    {
      "uri": "data:application/octet-stream;base64,",
      "byteLength": 393744
    },
    {
      "uri": "data:application/octet-stream;base64,",
      "byteLength": 387816
    },
    {
      "uri": "data:application/octet-stream;base64,",
      "byteLength": 390624
    }
  ],
  "materials": [
    {
      "pbrMetallicRoughness": {
        "baseColorFactor": [0.9557389567669173, 0, 0, 0.8],
        "metallicFactor": 0.4,
        "roughnessFactor": 0.2
      },
      "emissiveFactor": [0, 0, 0],
      "alphaMode": "BLEND",
      "name": "Mat.1",
      "doubleSided": true
    }
  ]
}
