<svg width="248" height="59" viewBox="0 0 248 59" fill="none" xmlns="http://www.w3.org/2000/svg">
<path d="M65.2646 18.2031V41.1552H70.144V32.2647H80.7207V27.6682H70.144V22.7996H82.1523V18.2031H65.2646Z" fill="white"/>
<path d="M92.9043 24.0997L95.8553 31.5387H89.9826L92.9043 24.0997ZM90.7422 18.0215L81.2466 41.155H86.2135L88.2295 36.0142H97.6083L99.6243 41.155H104.737L95.2417 18.0215H90.7422Z" fill="white"/>
<path d="M121.859 18.2031V32.3252L111.457 18.2031H106.958V41.1552H111.779V26.5493L122.531 41.1552H126.68V18.2031H121.859Z" fill="white"/>
<path d="M130.127 37.7987L133.02 34.2304C135.007 35.9238 137.11 37.0124 139.652 37.0124C141.639 37.0124 142.837 36.1959 142.837 34.8352V34.7747C142.837 33.5046 142.077 32.8393 138.367 31.8414C133.896 30.662 131.004 29.392 131.004 24.8258V24.7653C131.004 20.5922 134.247 17.8403 138.776 17.8403C142.019 17.8403 144.765 18.8987 147.015 20.7736L144.473 24.5838C142.516 23.1625 140.587 22.3158 138.717 22.3158C136.847 22.3158 135.854 23.1928 135.854 24.3117V24.3722C135.854 25.8842 136.818 26.368 140.646 27.3961C145.145 28.6057 147.687 30.2689 147.687 34.2908V34.3513C147.687 38.9175 144.327 41.4577 139.535 41.4577C136.175 41.4879 132.786 40.2783 130.127 37.7987Z" fill="white"/>
<path d="M151.544 18.2031H156.423V27.2751H165.422V18.2031H170.302V41.1552H165.422V31.932H156.423V41.1552H151.544V18.2031Z" fill="white"/>
<path d="M182.456 18.0215H186.956L196.451 41.155H191.338L189.322 36.0142H179.943L177.927 41.155H172.96L182.456 18.0215ZM187.569 31.5387L184.618 24.0997L181.667 31.5387H187.569Z" fill="white"/>
<path d="M194.23 18.2031H199.46L204.048 33.7464L209.014 18.1426H213.193L218.189 33.7464L222.776 18.2031H227.889L220.292 41.3366H216.056L211.06 26.3073L206.034 41.3366H201.798L194.23 18.2031Z" fill="white"/>
<path d="M230.694 18.2031H247.435V22.6786H235.544V27.3658H246.004V31.8413H235.544V36.6495H247.581V41.1552H230.694V18.2031Z" fill="white"/>
<path d="M28.3918 11.2359L17.6529 0.0908003C17.5499 -0.0157788 17.4469 -0.000553224 17.3881 0.0146724C17.2704 0.0451236 17.1821 0.166929 17.1821 0.273508V7.68837C17.1821 8.09946 17.3439 8.49533 17.6382 8.76939L24.1992 15.56L28.3918 11.2359Z" fill="white"/>
<path d="M10.3564 7.56805C10.2829 7.4767 10.1799 7.4767 10.1063 7.49192C9.98865 7.52237 9.9151 7.62895 9.90039 7.73553L9.9151 15.1352C9.85626 15.8203 10.3564 16.2923 10.3564 16.2923L20.7275 27.0264C20.7864 27.072 20.9188 27.1938 21.1394 27.1938V18.7436L10.3564 7.56805Z" fill="white"/>
<path d="M28.3916 19.9449L24.2137 15.5752L21.1392 18.7573V27.2075C21.4334 27.2075 21.5952 26.9944 21.6099 26.9639L28.3916 19.9449Z" fill="white"/>
<path d="M39.6017 0.274061C39.6017 0.0761285 39.4546 0 39.3369 0C39.2781 0 39.2045 0.030451 39.131 0.0913533L28.3921 11.2213V19.9303L38.9691 8.9831L38.9839 8.96788C39.3369 8.66336 39.587 8.2066 39.587 7.79551V0.274061H39.6017Z" fill="white"/>
<path d="M28.3917 11.2358L24.2139 15.5599L28.3917 19.9449V11.2358Z" fill="white"/>
<path d="M10.8566 29.522L0.0883506 40.6367C-0.0146249 40.7432 8.584e-05 40.8498 0.0147966 40.9107C0.0442182 41.0325 0.161905 41.1239 0.264881 41.1239H7.42903C7.82623 41.1239 8.20871 40.9564 8.4735 40.6519L15.0345 33.8613L10.8566 29.522Z" fill="white"/>
<path d="M7.31132 48.1897C7.22305 48.2658 7.22305 48.3724 7.23776 48.4485C7.26718 48.5703 7.37016 48.6464 7.47314 48.6617L14.6226 48.6464C15.2846 48.7073 15.7406 48.1897 15.7406 48.1897L26.1117 37.4556C26.1558 37.3947 26.2735 37.2577 26.2735 37.0293H18.109L7.31132 48.1897Z" fill="white"/>
<path d="M19.2562 29.522L15.0342 33.846L18.1087 37.0282H26.2732C26.2732 36.7237 26.0673 36.5562 26.0379 36.541L19.2562 29.522Z" fill="white"/>
<path d="M0.264795 17.9048C0.0882652 17.9048 0 18.0723 0 18.1788C0 18.2397 0.0294214 18.3159 0.0882645 18.392L10.8419 29.5067H19.2564L8.67937 18.5595L8.64995 18.5443C8.35573 18.1788 7.91441 17.92 7.51721 17.92H0.264795V17.9048Z" fill="white"/>
<path d="M10.8564 29.522L15.0343 33.846L19.2563 29.522H10.8564Z" fill="white"/>
<path d="M28.48 47.7621L39.2189 58.9073C39.3218 59.0139 39.4248 58.9986 39.4836 58.9834C39.6013 58.953 39.6896 58.8312 39.6896 58.7246C39.6896 58.7246 39.6896 51.3249 39.6896 51.3097C39.6896 50.8986 39.5278 50.5028 39.2336 50.2287L32.6578 43.4229L28.48 47.7621Z" fill="white"/>
<path d="M46.5154 51.4162C46.589 51.5076 46.692 51.5076 46.7655 51.4924C46.8832 51.4619 46.9568 51.3553 46.9715 51.2488L46.9568 43.8491C47.0156 43.164 46.5154 42.692 46.5154 42.692L36.1443 31.9731C36.1002 31.9275 35.9531 31.8057 35.7324 31.8057V40.2559L46.5154 51.4162Z" fill="white"/>
<path d="M28.48 39.0536L32.6578 43.4234L35.7324 40.2412V31.791C35.4382 31.791 35.2764 32.0042 35.2617 32.0346L28.48 39.0536Z" fill="white"/>
<path d="M17.2705 58.7104C17.2705 58.8932 17.4176 58.9845 17.5353 58.9845C17.5941 58.9845 17.6677 58.9541 17.7413 58.8932L28.4801 47.7632V39.0542L17.9031 50.0014L17.8884 50.0319C17.5353 50.3364 17.2852 50.7931 17.2852 51.2042V58.7104H17.2705Z" fill="white"/>
<path d="M28.48 47.7632L32.6578 43.4239L28.48 39.0542V47.7632Z" fill="white"/>
<path d="M46.1622 29.4774L56.9305 18.3627C57.0335 18.2561 57.0188 18.1496 57.0041 18.0886C56.9747 17.9668 56.857 17.8755 56.754 17.8755H49.5899C49.1927 17.8755 48.8102 18.043 48.5454 18.3475L41.9844 25.1381L46.1622 29.4774Z" fill="white"/>
<path d="M49.6932 10.7943C49.7814 10.7181 49.7961 10.6116 49.7667 10.5354C49.7373 10.4136 49.6343 10.3375 49.5314 10.3223L42.3819 10.3375C41.7199 10.2766 41.2639 10.7943 41.2639 10.7943L30.8928 21.5283C30.8486 21.574 30.731 21.7262 30.731 21.9546H38.8954L49.6932 10.7943Z" fill="white"/>
<path d="M37.748 29.4774L41.97 25.1533L38.8954 21.9712H30.731C30.731 22.2757 30.9369 22.4432 30.9663 22.4584L37.748 29.4774Z" fill="white"/>
<path d="M56.7397 41.078C56.9309 41.078 57.0045 40.9105 57.0045 40.8039C57.0045 40.743 56.9751 40.6669 56.9162 40.5908L46.1626 29.4761H37.748L48.3251 40.4233L48.3545 40.4537C48.6487 40.8191 49.0901 41.078 49.4873 41.078H56.7397Z" fill="white"/>
<path d="M46.1626 29.476L41.97 25.1367L37.748 29.476H46.1626Z" fill="white"/>
</svg>
